<svg xmlns="http://www.w3.org/2000/svg" width="151.911" height="20.672" viewBox="0 0 151.911 20.672">
  <g id="Group_31" data-name="Group 31" transform="translate(-814 -7984)">
    <path id="Icon_awesome-facebook-square" data-name="Icon awesome-facebook-square" d="M18.457,2.25H2.215A2.215,2.215,0,0,0,0,4.465V20.707a2.215,2.215,0,0,0,2.215,2.215H8.548V15.894H5.641V12.586H8.548V10.065c0-2.868,1.707-4.452,4.322-4.452a17.611,17.611,0,0,1,2.562.223V8.651H13.989a1.654,1.654,0,0,0-1.865,1.787v2.148H15.3l-.508,3.308H12.124v7.028h6.333a2.215,2.215,0,0,0,2.215-2.215V4.465A2.215,2.215,0,0,0,18.457,2.25Z" transform="translate(814 7981.75)" fill="#fff"/>
    <path id="Icon_awesome-linkedin" data-name="Icon awesome-linkedin" d="M19.2,2.25H1.472A1.483,1.483,0,0,0,0,3.74V21.431a1.483,1.483,0,0,0,1.472,1.49H19.2a1.487,1.487,0,0,0,1.477-1.49V3.74A1.487,1.487,0,0,0,19.2,2.25ZM6.248,19.969H3.184V10.1H6.252v9.865ZM4.716,8.756A1.776,1.776,0,1,1,6.492,6.98,1.777,1.777,0,0,1,4.716,8.756ZM17.733,19.969H14.669v-4.8c0-1.144-.023-2.616-1.592-2.616-1.6,0-1.841,1.246-1.841,2.533v4.882H8.172V10.1h2.939v1.347h.042a3.227,3.227,0,0,1,2.9-1.592c3.1,0,3.678,2.044,3.678,4.7Z" transform="translate(857.928 7981.75)" fill="#fff"/>
    <path id="Icon_awesome-twitter-square" data-name="Icon awesome-twitter-square" d="M18.457,2.25H2.215A2.215,2.215,0,0,0,0,4.465V20.707a2.215,2.215,0,0,0,2.215,2.215H18.457a2.215,2.215,0,0,0,2.215-2.215V4.465A2.215,2.215,0,0,0,18.457,2.25ZM16.2,9.577c.009.129.009.263.009.392A8.552,8.552,0,0,1,7.6,18.58a8.571,8.571,0,0,1-4.647-1.357,6.376,6.376,0,0,0,.729.037,6.067,6.067,0,0,0,3.756-1.292,3.03,3.03,0,0,1-2.829-2.1,3.262,3.262,0,0,0,1.366-.055,3.027,3.027,0,0,1-2.422-2.972V10.8a3.024,3.024,0,0,0,1.366.383A3.02,3.02,0,0,1,3.571,8.668a2.988,2.988,0,0,1,.411-1.527,8.593,8.593,0,0,0,6.238,3.165,3.033,3.033,0,0,1,5.163-2.764,5.93,5.93,0,0,0,1.92-.729,3.018,3.018,0,0,1-1.329,1.666,6.022,6.022,0,0,0,1.744-.471A6.37,6.37,0,0,1,16.2,9.577Z" transform="translate(901.339 7981.75)" fill="#fff"/>
    <rect id="Rectangle_167" data-name="Rectangle 167" width="20.598" height="20.598" rx="4" transform="translate(945.313 7984)" fill="#fff"/>
    <path id="Icon_awesome-instagram" data-name="Icon awesome-instagram" d="M7.748,6.014a3.974,3.974,0,1,0,3.974,3.974A3.968,3.968,0,0,0,7.748,6.014Zm0,6.558a2.584,2.584,0,1,1,2.584-2.584A2.588,2.588,0,0,1,7.748,12.572Zm5.064-6.72a.927.927,0,1,1-.927-.927A.925.925,0,0,1,12.812,5.851Zm2.632.941a4.587,4.587,0,0,0-1.252-3.248,4.617,4.617,0,0,0-3.248-1.252c-1.28-.073-5.116-.073-6.4,0A4.611,4.611,0,0,0,1.3,3.541,4.6,4.6,0,0,0,.049,6.789c-.073,1.28-.073,5.116,0,6.4A4.587,4.587,0,0,0,1.3,16.432a4.623,4.623,0,0,0,3.248,1.252c1.28.073,5.116.073,6.4,0a4.587,4.587,0,0,0,3.248-1.252,4.617,4.617,0,0,0,1.252-3.248c.073-1.28.073-5.112,0-6.392Zm-1.653,7.765a2.616,2.616,0,0,1-1.473,1.473,17.083,17.083,0,0,1-4.569.311,17.216,17.216,0,0,1-4.569-.311,2.616,2.616,0,0,1-1.473-1.473,17.083,17.083,0,0,1-.311-4.569,17.216,17.216,0,0,1,.311-4.569A2.616,2.616,0,0,1,3.179,3.945a17.083,17.083,0,0,1,4.569-.311,17.216,17.216,0,0,1,4.569.311,2.616,2.616,0,0,1,1.473,1.473A17.083,17.083,0,0,1,14.1,9.988,17.073,17.073,0,0,1,13.791,14.557Z" transform="translate(947.856 7984.348)" fill="#003122"/>
  </g>
</svg>
