<svg xmlns="http://www.w3.org/2000/svg" width="711.37" height="435.926" viewBox="0 0 711.37 435.926">
  <g id="Group_188" data-name="Group 188" transform="translate(-911 -1220)">
    <g id="Group_187" data-name="Group 187" transform="translate(911 1220)">
      <rect id="Rectangle_8274" data-name="Rectangle 8274" width="711.37" height="59.285" transform="translate(0 0)" fill="#225649"/>
      <g id="Group_175" data-name="Group 175" transform="translate(46.1 22.022)">
        <path id="Path_346" data-name="Path 346" d="M105.731,95.584a1.155,1.155,0,1,1-2.309,0V83.264a1.153,1.153,0,0,1,.467-.973,1.166,1.166,0,0,1,1.609.253l6.836,9.464V83.286a1.151,1.151,0,0,1,1.143-1.143,1.169,1.169,0,0,1,1.164,1.143v12.3a1.174,1.174,0,0,1-1.164,1.164,1.151,1.151,0,0,1-.868-.423.6.6,0,0,1-.1-.129l-6.773-9.4Z" transform="translate(-103.42 -81.508)" fill="#fff"/>
        <path id="Path_347" data-name="Path 347" d="M110.969,95.657V83.168A1.148,1.148,0,0,1,112.133,82h6.921a1.174,1.174,0,0,1,1.164,1.164,1.193,1.193,0,0,1-1.164,1.186H113.32v3.873h4.931a1.174,1.174,0,0,1,0,2.349H113.32v3.9h5.735a1.174,1.174,0,0,1,0,2.349H112.2c-.042,0-.042-.022-.042-.022l-.022.022A1.161,1.161,0,0,1,110.969,95.657Z" transform="translate(-96.045 -81.581)" fill="#fff"/>
        <path id="Path_348" data-name="Path 348" d="M137.223,83.683l-5.188,12.34a.568.568,0,0,1-.1.19l-.022.022a.549.549,0,0,1-.107.127c0,.044-.02.044-.02.065a.584.584,0,0,0-.148.1h-.022c-.063.042-.1.1-.19.127H131.4a.021.021,0,0,0-.022.022.708.708,0,0,0-.168.042h-.044a.633.633,0,0,1-.212.022.567.567,0,0,1-.19-.022H130.7a.581.581,0,0,0-.146-.042c-.022-.022-.022-.022-.043-.022a.432.432,0,0,1-.19-.127H130.3a1.717,1.717,0,0,0-.148-.1.193.193,0,0,1-.042-.065c-.022-.042-.063-.085-.085-.127-.043,0-.043-.022-.043-.022a.5.5,0,0,1-.083-.19l-2.774-6.562-2.774,6.562a1.634,1.634,0,0,1-.083.19.021.021,0,0,0-.022.022l-.127.127c0,.044-.022.044-.022.065a.539.539,0,0,0-.127.1h-.044c-.063.042-.127.1-.168.127h-.022a.021.021,0,0,0-.022.022.334.334,0,0,0-.168.042h-.063a.579.579,0,0,1-.192.022.7.7,0,0,1-.212-.022h-.063a.592.592,0,0,0-.148-.042c-.022-.022-.022-.022-.042-.022a.648.648,0,0,1-.192-.127h-.02c-.065-.042-.087-.085-.15-.1a.194.194,0,0,1-.042-.065c-.042-.042-.063-.085-.1-.127v-.022a1.273,1.273,0,0,1-.107-.19l-5.207-12.34a1.158,1.158,0,0,1,2.137-.89l4.15,9.8,2.732-6.5a1.166,1.166,0,0,1,1.1-.72,1.213,1.213,0,0,1,1.1.72l2.73,6.5,4.128-9.8a1.175,1.175,0,0,1,1.546-.615A1.145,1.145,0,0,1,137.223,83.683Z" transform="translate(-90.231 -81.502)" fill="#fff"/>
        <path id="Path_349" data-name="Path 349" d="M132.326,95.657V83.168A1.161,1.161,0,0,1,133.49,82h6.921a1.175,1.175,0,0,1,0,2.351h-5.735v3.873h4.933a1.174,1.174,0,0,1,0,2.349h-4.933v5.081a1.18,1.18,0,0,1-1.186,1.164A1.161,1.161,0,0,1,132.326,95.657Z" transform="translate(-75.18 -81.581)" fill="#fff"/>
        <path id="Path_350" data-name="Path 350" d="M150.6,84.054a7.774,7.774,0,0,1,0,10.711,6.928,6.928,0,0,1-5.059,2.266,7.146,7.146,0,0,1-5.186-2.266,7.891,7.891,0,0,1,0-10.711,7.069,7.069,0,0,1,5.186-2.264A6.853,6.853,0,0,1,150.6,84.054Zm-.275,5.356a5.489,5.489,0,0,0-1.439-3.7,4.567,4.567,0,0,0-6.773,0,5.387,5.387,0,0,0-1.439,3.7,5.289,5.289,0,0,0,1.439,3.683,4.524,4.524,0,0,0,6.773,0A5.388,5.388,0,0,0,150.322,89.409Z" transform="translate(-69.386 -81.79)" fill="#fff"/>
        <path id="Path_351" data-name="Path 351" d="M157.635,95.064a1.169,1.169,0,0,1-.739,1.483,1.852,1.852,0,0,1-.467.063h-.022a1.522,1.522,0,0,1-.824-.233,2.08,2.08,0,0,1-.678-.741,5.685,5.685,0,0,1-.445-2.54,1.793,1.793,0,0,0-.253-.909,1.979,1.979,0,0,0-.637-.615,4.042,4.042,0,0,0-1.184-.506h-2.5v4.592a1.18,1.18,0,0,1-1.184,1.164,1.161,1.161,0,0,1-1.164-1.164V83.168A1.148,1.148,0,0,1,148.7,82h3.788a4.526,4.526,0,0,1,2.878,8.023,3.266,3.266,0,0,1,.741.783,4.015,4.015,0,0,1,.7,2.285,5.244,5.244,0,0,0,.085,1.249A1.136,1.136,0,0,1,157.635,95.064Zm-2.963-8.509a2.18,2.18,0,0,0-2.181-2.2h-2.6v4.359h2.6A2.171,2.171,0,0,0,154.672,86.555Z" transform="translate(-60.318 -81.581)" fill="#fff"/>
        <path id="Path_352" data-name="Path 352" d="M167.123,83.168V95.657a1.193,1.193,0,0,1-1.184,1.164,1.161,1.161,0,0,1-1.164-1.164V86.745l-3.048,4.235a1.158,1.158,0,0,1-.953.486h-.042a1.2,1.2,0,0,1-.975-.486l-3.027-4.235v8.912a1.175,1.175,0,0,1-2.351,0V83.168A1.176,1.176,0,0,1,155.543,82h.065a1.137,1.137,0,0,1,.929.486l4.215,5.842,4.211-5.842a1.153,1.153,0,0,1,.953-.486h.022A1.206,1.206,0,0,1,167.123,83.168Z" transform="translate(-53.635 -81.581)" fill="#fff"/>
      </g>
      <g id="Group_186" data-name="Group 186" transform="translate(63.098 82.44)">
        <g id="Group_176" data-name="Group 176" transform="translate(1.321)">
          <path id="Path_353" data-name="Path 353" d="M112.687,120.584v-7.489a.7.7,0,0,1,.7-.7h4.152a.7.7,0,0,1,0,1.41H114.1v2.323h2.958a.714.714,0,0,1,.7.7.707.707,0,0,1-.7.71H114.1v3.047a.709.709,0,0,1-.712.7A.7.7,0,0,1,112.687,120.584Z" transform="translate(-112.687 -112.308)" fill="#263238"/>
          <path id="Path_354" data-name="Path 354" d="M117.88,113.348a.685.685,0,0,1-.686.7.694.694,0,0,1-.686-.7v-.267a.685.685,0,0,1,.686-.686.676.676,0,0,1,.686.686Zm0,2.3V120.6a.676.676,0,0,1-.686.686.685.685,0,0,1-.686-.686v-4.952a.679.679,0,0,1,.686-.7A.671.671,0,0,1,117.88,115.645Z" transform="translate(-108.954 -112.308)" fill="#263238"/>
          <path id="Path_355" data-name="Path 355" d="M122.217,114.347a.679.679,0,0,1-.674.674,1.218,1.218,0,0,0-.761.239,1.934,1.934,0,0,0-.583.611,3.835,3.835,0,0,0-.522,1.066v2.412a.692.692,0,0,1-.7.674.678.678,0,0,1-.672-.674v-5a.667.667,0,0,1,.672-.66.68.68,0,0,1,.7.66v.089a1.687,1.687,0,0,1,.267-.253,2.78,2.78,0,0,1,1.6-.5A.66.66,0,0,1,122.217,114.347Z" transform="translate(-107.196 -111.047)" fill="#263238"/>
          <path id="Path_356" data-name="Path 356" d="M121.047,118.211a.659.659,0,0,1,.951-.1,2.331,2.331,0,0,0,1.4.558,1.7,1.7,0,0,0,.864-.239.526.526,0,0,0,.227-.382.2.2,0,0,0-.038-.127.389.389,0,0,0-.166-.154,2.951,2.951,0,0,0-1.016-.354h-.012a4.919,4.919,0,0,1-1.1-.33,2.108,2.108,0,0,1-.876-.737,1.525,1.525,0,0,1-.217-.8,1.778,1.778,0,0,1,.749-1.4,2.718,2.718,0,0,1,1.562-.471,3.264,3.264,0,0,1,1.9.7.7.7,0,0,1,.2.939.672.672,0,0,1-.939.178,2.172,2.172,0,0,0-1.168-.469,1.29,1.29,0,0,0-.761.227.387.387,0,0,0-.2.293.135.135,0,0,0,.026.1.328.328,0,0,0,.14.127,2.548,2.548,0,0,0,.925.3l.014.014h.012a4.587,4.587,0,0,1,1.18.368,1.963,1.963,0,0,1,.9.749,1.642,1.642,0,0,1,.241.838,1.834,1.834,0,0,1-.8,1.473,2.9,2.9,0,0,1-1.651.508,3.7,3.7,0,0,1-2.26-.876A.679.679,0,0,1,121.047,118.211Z" transform="translate(-104.666 -111.053)" fill="#263238"/>
          <path id="Path_357" data-name="Path 357" d="M127.559,115.633a.715.715,0,0,1-.712.7h-.316v3.543a.7.7,0,0,1,.7.71.69.69,0,0,1-.7.7,1.415,1.415,0,0,1-1.41-1.41v-3.543h-.368a.7.7,0,0,1-.7-.7.688.688,0,0,1,.7-.7h.368v-1.841a.7.7,0,0,1,.712-.7.69.69,0,0,1,.7.7v1.841h.316A.707.707,0,0,1,127.559,115.633Z" transform="translate(-101.58 -112.308)" fill="#263238"/>
          <path id="Path_358" data-name="Path 358" d="M130.341,120.539a.692.692,0,1,1-1.384,0v-7.388a.682.682,0,0,1,.279-.583.7.7,0,0,1,.965.152l4.1,5.674v-5.231a.691.691,0,0,1,.686-.684.7.7,0,0,1,.7.684v7.376a.7.7,0,0,1-.7.7.681.681,0,0,1-.52-.255.345.345,0,0,1-.063-.075l-4.063-5.636Z" transform="translate(-96.792 -112.264)" fill="#263238"/>
          <path id="Path_359" data-name="Path 359" d="M139.535,116.867v2.487a.678.678,0,0,1-.672.674.69.69,0,0,1-.66-.548,2.876,2.876,0,0,1-1.688.548,2.949,2.949,0,0,1-2.159-.927,3.255,3.255,0,0,1-.864-2.234,3.2,3.2,0,0,1,.864-2.234,2.92,2.92,0,0,1,2.159-.953,2.886,2.886,0,0,1,1.688.559.689.689,0,0,1,.66-.559.68.68,0,0,1,.672.686Zm-1.346,0a1.871,1.871,0,0,0-.494-1.309,1.573,1.573,0,0,0-1.18-.52,1.538,1.538,0,0,0-1.182.52,1.872,1.872,0,0,0-.482,1.309,1.913,1.913,0,0,0,.482,1.307,1.6,1.6,0,0,0,1.182.494,1.638,1.638,0,0,0,1.18-.494A1.913,1.913,0,0,0,138.188,116.867Z" transform="translate(-92.362 -111.053)" fill="#263238"/>
          <path id="Path_360" data-name="Path 360" d="M143.114,116.307v3.047a.679.679,0,0,1-.674.674.7.7,0,0,1-.684-.674v-3.047a1.3,1.3,0,0,0-2.59.038v3.009c0,.026-.012.063-.012.089v.038c-.014.026-.014.051-.04.077v.063a.74.74,0,0,1-.635.407c-.051,0-.089-.014-.126-.014a.69.69,0,0,1-.546-.66v-4.988a.671.671,0,0,1,.672-.686.643.643,0,0,1,.609.382,2.682,2.682,0,0,1,1.36-.382,2.632,2.632,0,0,1,1.991.876,2.619,2.619,0,0,1,1.995-.876,2.652,2.652,0,0,1,2.641,2.665v3.009a.68.68,0,0,1-.674.674.69.69,0,0,1-.686-.674v-3.009a1.3,1.3,0,0,0-1.281-1.307A1.318,1.318,0,0,0,143.114,116.307Z" transform="translate(-88.145 -111.053)" fill="#263238"/>
          <path id="Path_361" data-name="Path 361" d="M143.691,116.853a3.143,3.143,0,0,1,3.1-3.173,3.037,3.037,0,0,1,3.06,2.946v.063a.326.326,0,0,1-.014.115.61.61,0,0,1-.66.506h-4.037a1.671,1.671,0,0,0,.433.838,1.955,1.955,0,0,0,1.218.571,2.074,2.074,0,0,0,1.321-.316.717.717,0,0,1,.953-.038.581.581,0,0,1,0,.824,3.212,3.212,0,0,1-2.274.838A3.154,3.154,0,0,1,143.691,116.853Zm1.384-.621h3.594a2.078,2.078,0,0,0-1.88-1.346A1.773,1.773,0,0,0,145.075,116.232Z" transform="translate(-82.397 -111.053)" fill="#263238"/>
          <path id="Path_362" data-name="Path 362" d="M149.278,114.927l-.951.7a.561.561,0,0,1-.318.128.435.435,0,0,1-.419-.433.461.461,0,0,1,.293-.393l1.117-.482-1.117-.494a.442.442,0,0,1-.293-.393.434.434,0,0,1,.431-.419.455.455,0,0,1,.306.127l.951.7-.126-1.129a.4.4,0,0,1,.393-.482.389.389,0,0,1,.393.469l-.126,1.143.953-.7a.478.478,0,0,1,.316-.127.422.422,0,0,1,.419.419.427.427,0,0,1-.293.393l-1.117.494,1.117.482a.445.445,0,0,1,.293.405.435.435,0,0,1-.431.421.55.55,0,0,1-.3-.128l-.953-.7.126,1.131a.4.4,0,0,1-.393.482.392.392,0,0,1-.393-.471Z" transform="translate(-78.588 -112.351)" fill="#ffc727"/>
        </g>
        <rect id="Rectangle_8275" data-name="Rectangle 8275" width="272.683" height="27.061" transform="translate(0 17.904)" fill="#ebebeb"/>
        <g id="Group_177" data-name="Group 177" transform="translate(1.321 62.951)">
          <path id="Path_363" data-name="Path 363" d="M112.687,152.427v-7.491a.688.688,0,0,1,.7-.7h4.152a.7.7,0,0,1,.7.7.715.715,0,0,1-.7.71H114.1v2.325h2.958a.7.7,0,0,1,0,1.408H114.1v2.337h3.44a.7.7,0,0,1,0,1.41h-4.114c-.026,0-.026-.014-.026-.014l-.012.014A.7.7,0,0,1,112.687,152.427Z" transform="translate(-112.687 -144.149)" fill="#263238"/>
          <path id="Path_364" data-name="Path 364" d="M121.731,148.149V151.2a.678.678,0,0,1-.672.674.7.7,0,0,1-.686-.674v-3.047a1.3,1.3,0,0,0-2.59.038V151.2c0,.026-.012.065-.012.091v.038c-.014.026-.014.049-.04.075v.063a.738.738,0,0,1-.635.407c-.051,0-.089-.014-.127-.014a.69.69,0,0,1-.546-.66v-4.988a.672.672,0,0,1,.672-.686.648.648,0,0,1,.611.382,2.669,2.669,0,0,1,1.358-.382,2.636,2.636,0,0,1,1.993.876,2.611,2.611,0,0,1,1.993-.876,2.654,2.654,0,0,1,2.641,2.665V151.2a.68.68,0,0,1-.674.674.689.689,0,0,1-.684-.674v-3.009a1.3,1.3,0,0,0-1.283-1.307A1.318,1.318,0,0,0,121.731,148.149Z" transform="translate(-109.035 -142.895)" fill="#263238"/>
          <path id="Path_365" data-name="Path 365" d="M128.235,148.709V151.2a.677.677,0,0,1-.672.674.692.692,0,0,1-.66-.546,2.884,2.884,0,0,1-1.688.546,2.948,2.948,0,0,1-2.157-.927,3.251,3.251,0,0,1-.864-2.234,3.2,3.2,0,0,1,.864-2.234,2.919,2.919,0,0,1,2.157-.953,2.881,2.881,0,0,1,1.688.559.69.69,0,0,1,.66-.559.678.678,0,0,1,.672.686Zm-1.344,0a1.863,1.863,0,0,0-.5-1.309,1.569,1.569,0,0,0-1.18-.52,1.533,1.533,0,0,0-1.18.52,1.863,1.863,0,0,0-.482,1.309,1.9,1.9,0,0,0,.482,1.307,1.6,1.6,0,0,0,1.18.5,1.636,1.636,0,0,0,1.18-.5A1.9,1.9,0,0,0,126.89,148.709Z" transform="translate(-103.4 -142.895)" fill="#263238"/>
          <path id="Path_366" data-name="Path 366" d="M127.887,145.189a.687.687,0,0,1-.686.7.7.7,0,0,1-.686-.7v-.267a.683.683,0,0,1,.686-.684.675.675,0,0,1,.686.684Zm0,2.3v4.95a.676.676,0,0,1-.686.686.685.685,0,0,1-.686-.686v-4.95a.678.678,0,0,1,.686-.7A.67.67,0,0,1,127.887,147.488Z" transform="translate(-99.178 -144.149)" fill="#263238"/>
          <path id="Path_367" data-name="Path 367" d="M128.924,144.238a.707.707,0,0,1,.71.7v7.491a.7.7,0,0,1-1.41,0v-7.491A.706.706,0,0,1,128.924,144.238Z" transform="translate(-97.508 -144.149)" fill="#263238"/>
          <path id="Path_368" data-name="Path 368" d="M131.358,146.769l-.953.7a.566.566,0,0,1-.316.127.434.434,0,0,1-.419-.431.465.465,0,0,1,.291-.4l1.117-.482-1.117-.494a.44.44,0,0,1-.291-.393.434.434,0,0,1,.431-.419.45.45,0,0,1,.3.126l.953.7-.127-1.129a.4.4,0,0,1,.393-.482.392.392,0,0,1,.393.471l-.129,1.141.953-.7a.485.485,0,0,1,.316-.126.416.416,0,0,1,.129.813l-1.117.494,1.117.482a.446.446,0,0,1,.291.407.434.434,0,0,1-.431.419.573.573,0,0,1-.3-.127l-.953-.7.129,1.131a.4.4,0,0,1-.393.482.39.39,0,0,1-.393-.471Z" transform="translate(-96.095 -144.193)" fill="#ffc727"/>
        </g>
        <rect id="Rectangle_8276" data-name="Rectangle 8276" width="585.109" height="27.061" transform="translate(0 80.855)" fill="#ebebeb"/>
        <g id="Group_178" data-name="Group 178" transform="translate(0.926 124.691)">
          <path id="Path_369" data-name="Path 369" d="M112.487,179.994a4.664,4.664,0,0,1,4.66-4.571,4.753,4.753,0,0,1,2.932.99.751.751,0,0,1,.128,1.016.742.742,0,0,1-1.016.138,3.164,3.164,0,0,0-2.044-.7,3.357,3.357,0,0,0-2.285.913,3.134,3.134,0,0,0-.925,2.208,3.089,3.089,0,0,0,.925,2.208,3.359,3.359,0,0,0,2.285.915,3.192,3.192,0,0,0,2.044-.7.769.769,0,0,1,1.016.138.75.75,0,0,1-.128,1.016,4.753,4.753,0,0,1-2.932.99A4.646,4.646,0,0,1,112.487,179.994Z" transform="translate(-112.487 -175.423)" fill="#263238"/>
          <path id="Path_370" data-name="Path 370" d="M118.232,182.257a3.165,3.165,0,0,1-.876-2.234,3.276,3.276,0,0,1,.876-2.222,2.966,2.966,0,0,1,2.185-.965,2.8,2.8,0,0,1,2.119.965,3.172,3.172,0,0,1,.89,2.222,3.069,3.069,0,0,1-.89,2.234,2.8,2.8,0,0,1-2.119.965A2.966,2.966,0,0,1,118.232,182.257Zm.508-2.234a2.054,2.054,0,0,0,.459,1.346,1.714,1.714,0,0,0,1.218.469,1.656,1.656,0,0,0,1.166-.469,1.95,1.95,0,0,0,.5-1.346,1.906,1.906,0,0,0-.5-1.321,1.789,1.789,0,0,0-1.166-.482,1.844,1.844,0,0,0-1.218.482A2.006,2.006,0,0,0,118.74,180.023Z" transform="translate(-107.73 -174.043)" fill="#263238"/>
          <path id="Path_371" data-name="Path 371" d="M126.811,179.477v3.035a.666.666,0,0,1-.658.672.688.688,0,0,1-.674-.672v-3.035a1.3,1.3,0,0,0-1.319-1.283,1.269,1.269,0,0,0-1.271,1.283v3.035a.267.267,0,0,1-.024.127.7.7,0,0,1-.674.546.669.669,0,0,1-.672-.672v-5a.668.668,0,0,1,.672-.674.688.688,0,0,1,.623.393,2.535,2.535,0,0,1,1.346-.393A2.656,2.656,0,0,1,126.811,179.477Z" transform="translate(-103.663 -174.043)" fill="#263238"/>
          <path id="Path_372" data-name="Path 372" d="M128.632,178.788a.715.715,0,0,1-.712.7H127.6v3.543a.7.7,0,0,1,.7.712.689.689,0,0,1-.7.7,1.414,1.414,0,0,1-1.41-1.41v-3.543h-.368a.7.7,0,0,1-.7-.7.688.688,0,0,1,.7-.7h.368V176.25a.7.7,0,0,1,.712-.7.688.688,0,0,1,.7.7v1.841h.316A.707.707,0,0,1,128.632,178.788Z" transform="translate(-100.136 -175.297)" fill="#263238"/>
          <path id="Path_373" data-name="Path 373" d="M133.536,180.023v2.489a.678.678,0,0,1-.672.672.69.69,0,0,1-.66-.546,2.888,2.888,0,0,1-1.688.546,2.949,2.949,0,0,1-2.159-.927,3.247,3.247,0,0,1-.864-2.234,3.2,3.2,0,0,1,.864-2.234,2.92,2.92,0,0,1,2.159-.953,2.886,2.886,0,0,1,1.688.559.689.689,0,0,1,.66-.559.68.68,0,0,1,.672.686Zm-1.346,0a1.862,1.862,0,0,0-.494-1.307,1.567,1.567,0,0,0-1.18-.522,1.533,1.533,0,0,0-1.182.522,1.855,1.855,0,0,0-.482,1.307,1.9,1.9,0,0,0,.482,1.307,1.6,1.6,0,0,0,1.182.5,1.639,1.639,0,0,0,1.18-.5A1.912,1.912,0,0,0,132.189,180.023Z" transform="translate(-97.828 -174.043)" fill="#263238"/>
          <path id="Path_374" data-name="Path 374" d="M131.584,180.023a3.23,3.23,0,0,1,3.224-3.187,3.358,3.358,0,0,1,2.018.7.7.7,0,0,1,.14.941.679.679,0,0,1-.953.127,2.024,2.024,0,0,0-1.206-.407,1.823,1.823,0,1,0,0,3.644,2.055,2.055,0,0,0,1.206-.405.691.691,0,0,1,.953.138.706.706,0,0,1-.14.941,3.513,3.513,0,0,1-2.018.672A3.216,3.216,0,0,1,131.584,180.023Z" transform="translate(-93.83 -174.043)" fill="#263238"/>
          <path id="Path_375" data-name="Path 375" d="M138.652,178.788a.715.715,0,0,1-.71.7h-.318v3.543a.7.7,0,0,1,.7.712.689.689,0,0,1-.7.7,1.414,1.414,0,0,1-1.41-1.41v-3.543h-.368a.7.7,0,0,1-.7-.7.688.688,0,0,1,.7-.7h.368V176.25a.7.7,0,0,1,.712-.7.688.688,0,0,1,.7.7v1.841h.318A.707.707,0,0,1,138.652,178.788Z" transform="translate(-90.347 -175.297)" fill="#263238"/>
          <path id="Path_376" data-name="Path 376" d="M141.434,183.7a.692.692,0,1,1-1.384,0v-7.39a.69.69,0,0,1,.279-.583.7.7,0,0,1,.965.152l4.1,5.676v-5.231a.691.691,0,0,1,.686-.686.7.7,0,0,1,.7.686V183.7a.7.7,0,0,1-.7.7.685.685,0,0,1-.52-.253.407.407,0,0,1-.063-.077l-4.063-5.636Z" transform="translate(-85.559 -175.253)" fill="#263238"/>
          <path id="Path_377" data-name="Path 377" d="M147.5,183.184a2.656,2.656,0,0,1-2.641-2.641V177.51a.688.688,0,0,1,.674-.674.679.679,0,0,1,.674.674v3.033a1.283,1.283,0,0,0,1.293,1.295,1.318,1.318,0,0,0,1.334-1.295V177.51a.667.667,0,0,1,.66-.674.707.707,0,0,1,.684.674v3.033A2.68,2.68,0,0,1,147.5,183.184Z" transform="translate(-80.86 -174.043)" fill="#263238"/>
          <path id="Path_378" data-name="Path 378" d="M154.169,179.463v3.048a.678.678,0,0,1-.674.672.7.7,0,0,1-.684-.672v-3.048a1.3,1.3,0,0,0-2.59.04v3.009c0,.026-.014.063-.014.089v.038a.191.191,0,0,1-.038.075v.063a.74.74,0,0,1-.635.407c-.051,0-.089-.014-.127-.014a.69.69,0,0,1-.546-.658v-4.99a.672.672,0,0,1,.672-.686.643.643,0,0,1,.609.382,2.676,2.676,0,0,1,1.36-.382,2.632,2.632,0,0,1,1.991.876,2.619,2.619,0,0,1,1.995-.876,2.652,2.652,0,0,1,2.639,2.667v3.009a.678.678,0,0,1-.672.672.69.69,0,0,1-.686-.672V179.5a1.3,1.3,0,0,0-1.281-1.309A1.317,1.317,0,0,0,154.169,179.463Z" transform="translate(-76.949 -174.043)" fill="#263238"/>
          <path id="Path_379" data-name="Path 379" d="M154.971,181.277v-5.039a.692.692,0,0,1,1.384,0v2.386a3,3,0,0,1,1.7-.534,3.175,3.175,0,0,1,0,6.348,3.1,3.1,0,0,1-1.726-.546.683.683,0,0,1-.672.546.691.691,0,0,1-.686-.686Zm1.384,0a1.785,1.785,0,0,0,.508,1.257,1.619,1.619,0,0,0,1.192.52,1.647,1.647,0,0,0,1.194-.52,1.839,1.839,0,0,0,0-2.538,1.641,1.641,0,0,0-1.194-.522,1.614,1.614,0,0,0-1.192.522A1.794,1.794,0,0,0,156.355,181.277Z" transform="translate(-70.982 -175.297)" fill="#263238"/>
          <path id="Path_380" data-name="Path 380" d="M158.985,180.011a3.144,3.144,0,0,1,3.1-3.175,3.038,3.038,0,0,1,3.06,2.946v.063a.326.326,0,0,1-.014.115.612.612,0,0,1-.66.508h-4.037a1.7,1.7,0,0,0,.431.838,1.963,1.963,0,0,0,1.22.569,2.065,2.065,0,0,0,1.321-.316.72.72,0,0,1,.953-.038.581.581,0,0,1,0,.824,3.212,3.212,0,0,1-2.273.838A3.152,3.152,0,0,1,158.985,180.011Zm1.384-.623h3.594a2.076,2.076,0,0,0-1.88-1.346A1.775,1.775,0,0,0,160.369,179.388Z" transform="translate(-67.06 -174.043)" fill="#263238"/>
          <path id="Path_381" data-name="Path 381" d="M166.9,177.5a.678.678,0,0,1-.672.672,1.2,1.2,0,0,0-.761.241,1.913,1.913,0,0,0-.585.609,3.85,3.85,0,0,0-.52,1.068v2.412a.693.693,0,0,1-.7.672.677.677,0,0,1-.672-.672v-5a.664.664,0,0,1,.672-.66.68.68,0,0,1,.7.66v.087a1.691,1.691,0,0,1,.267-.253,2.779,2.779,0,0,1,1.6-.494A.658.658,0,0,1,166.9,177.5Z" transform="translate(-63.149 -174.036)" fill="#263238"/>
          <path id="Path_382" data-name="Path 382" d="M167.514,178.083l-.951.7a.561.561,0,0,1-.318.129.434.434,0,0,1-.419-.431.464.464,0,0,1,.293-.4l1.117-.48-1.117-.5a.442.442,0,0,1-.293-.393.434.434,0,0,1,.431-.419.459.459,0,0,1,.306.127l.951.7-.127-1.131a.4.4,0,0,1,.393-.482.392.392,0,0,1,.393.47l-.127,1.143.953-.7a.478.478,0,0,1,.316-.127.422.422,0,0,1,.419.419.427.427,0,0,1-.293.393l-1.117.5,1.117.48a.448.448,0,0,1,.293.407.434.434,0,0,1-.433.419.551.551,0,0,1-.3-.129l-.953-.7.127,1.131a.4.4,0,0,1-.393.482.391.391,0,0,1-.393-.469Z" transform="translate(-60.377 -175.341)" fill="#ffc727"/>
        </g>
        <rect id="Rectangle_8277" data-name="Rectangle 8277" width="585.109" height="27.061" transform="translate(0 142.762)" fill="#ebebeb"/>
        <g id="Group_179" data-name="Group 179" transform="translate(0.784 185.084)">
          <path id="Path_383" data-name="Path 383" d="M117.483,212.8H114.4l-.623,1.651a.716.716,0,0,1-.66.443.734.734,0,0,1-.241-.038.722.722,0,0,1-.419-.915l2.805-7.477a.715.715,0,0,1,.672-.445.7.7,0,0,1,.674.445l2.805,7.477a.721.721,0,0,1-.419.915.712.712,0,0,1-.888-.405Zm-.52-1.4-1.03-2.728-1.026,2.728Z" transform="translate(-112.415 -205.921)" fill="#263238"/>
          <path id="Path_384" data-name="Path 384" d="M122.563,214.216a.69.69,0,0,1-.686.686.683.683,0,0,1-.672-.546,3.1,3.1,0,0,1-1.728.546,3.174,3.174,0,0,1,0-6.346,3.007,3.007,0,0,1,1.7.532V206.7a.692.692,0,0,1,1.384,0v7.514Zm-3.086-4.278a1.633,1.633,0,0,0-1.192.522,1.839,1.839,0,0,0,0,2.538,1.629,1.629,0,0,0,2.386,0,1.839,1.839,0,0,0,0-2.538A1.618,1.618,0,0,0,119.477,209.938Z" transform="translate(-108.53 -205.927)" fill="#263238"/>
          <path id="Path_385" data-name="Path 385" d="M124.753,207.968a.677.677,0,0,1-.672.672,1.225,1.225,0,0,0-.763.241,1.929,1.929,0,0,0-.583.609,3.9,3.9,0,0,0-.52,1.068v2.412a.691.691,0,0,1-.7.672.675.675,0,0,1-.672-.672v-5a.664.664,0,0,1,.672-.66.68.68,0,0,1,.7.66v.087a1.769,1.769,0,0,1,.265-.253,2.8,2.8,0,0,1,1.6-.494A.658.658,0,0,1,124.753,207.968Z" transform="translate(-104.18 -204.666)" fill="#263238"/>
          <path id="Path_386" data-name="Path 386" d="M123.118,210.474a3.141,3.141,0,0,1,3.1-3.173,3.033,3.033,0,0,1,3.058,2.944v.063a.377.377,0,0,1-.012.115.612.612,0,0,1-.66.508h-4.037a1.669,1.669,0,0,0,.431.838,1.965,1.965,0,0,0,1.22.571,2.081,2.081,0,0,0,1.321-.318.717.717,0,0,1,.951-.038.578.578,0,0,1,0,.824,3.2,3.2,0,0,1-2.272.838A3.15,3.15,0,0,1,123.118,210.474Zm1.384-.623h3.592a2.078,2.078,0,0,0-1.878-1.346A1.775,1.775,0,0,0,124.5,209.851Z" transform="translate(-101.96 -204.672)" fill="#263238"/>
          <path id="Path_387" data-name="Path 387" d="M127.175,211.832a.659.659,0,0,1,.951-.1,2.316,2.316,0,0,0,1.4.559,1.7,1.7,0,0,0,.864-.241.522.522,0,0,0,.227-.382.2.2,0,0,0-.038-.127.388.388,0,0,0-.166-.152,2.963,2.963,0,0,0-1.016-.356h-.012a4.788,4.788,0,0,1-1.1-.33,2.12,2.12,0,0,1-.878-.735,1.554,1.554,0,0,1-.215-.8,1.781,1.781,0,0,1,.749-1.4,2.731,2.731,0,0,1,1.562-.469,3.264,3.264,0,0,1,1.9.7.7.7,0,0,1,.2.941.674.674,0,0,1-.941.178,2.169,2.169,0,0,0-1.166-.471,1.29,1.29,0,0,0-.761.227.387.387,0,0,0-.2.293.14.14,0,0,0,.026.1.34.34,0,0,0,.14.127,2.588,2.588,0,0,0,.925.3l.014.012h.012a4.591,4.591,0,0,1,1.18.37,1.951,1.951,0,0,1,.9.749,1.641,1.641,0,0,1,.241.836,1.837,1.837,0,0,1-.8,1.475,2.9,2.9,0,0,1-1.651.506,3.671,3.671,0,0,1-2.26-.876A.675.675,0,0,1,127.175,211.832Z" transform="translate(-98.142 -204.672)" fill="#263238"/>
          <path id="Path_388" data-name="Path 388" d="M130.271,211.832a.659.659,0,0,1,.951-.1,2.315,2.315,0,0,0,1.4.559,1.693,1.693,0,0,0,.864-.241.52.52,0,0,0,.229-.382.2.2,0,0,0-.038-.127.388.388,0,0,0-.166-.152,2.946,2.946,0,0,0-1.016-.356h-.012a4.834,4.834,0,0,1-1.105-.33,2.127,2.127,0,0,1-.876-.735,1.554,1.554,0,0,1-.215-.8,1.781,1.781,0,0,1,.749-1.4,2.726,2.726,0,0,1,1.562-.469,3.264,3.264,0,0,1,1.9.7.7.7,0,0,1,.2.941.672.672,0,0,1-.939.178,2.181,2.181,0,0,0-1.168-.471,1.3,1.3,0,0,0-.763.227.388.388,0,0,0-.2.293.14.14,0,0,0,.026.1.344.344,0,0,0,.138.127,2.6,2.6,0,0,0,.927.3l.012.012h.012a4.63,4.63,0,0,1,1.182.37,1.961,1.961,0,0,1,.9.749,1.641,1.641,0,0,1,.241.836,1.839,1.839,0,0,1-.8,1.475,2.894,2.894,0,0,1-1.651.506,3.67,3.67,0,0,1-2.258-.876A.675.675,0,0,1,130.271,211.832Z" transform="translate(-95.118 -204.672)" fill="#263238"/>
          <path id="Path_389" data-name="Path 389" d="M135.09,208.547l-.953.7a.561.561,0,0,1-.316.126.434.434,0,0,1-.419-.431.468.468,0,0,1,.291-.4l1.119-.48-1.119-.5a.444.444,0,0,1-.291-.393.435.435,0,0,1,.431-.419.45.45,0,0,1,.3.127l.953.7-.127-1.131a.4.4,0,0,1,.393-.482.392.392,0,0,1,.393.471l-.127,1.143.951-.7a.486.486,0,0,1,.318-.127.416.416,0,0,1,.127.813l-1.117.5,1.117.48a.45.45,0,0,1,.293.407.434.434,0,0,1-.433.419.573.573,0,0,1-.3-.126l-.951-.7.127,1.131a.4.4,0,0,1-.393.482.389.389,0,0,1-.393-.469Z" transform="translate(-91.912 -205.971)" fill="#ffc727"/>
        </g>
        <rect id="Rectangle_8278" data-name="Rectangle 8278" width="585.109" height="27.061" transform="translate(0 202.989)" fill="#ebebeb"/>
        <g id="Group_180" data-name="Group 180" transform="translate(313.745)">
          <path id="Path_390" data-name="Path 390" d="M270.719,120.584v-7.489a.7.7,0,0,1,.7-.7.709.709,0,0,1,.712.7v6.779h3.44a.7.7,0,0,1,0,1.41h-4.152A.7.7,0,0,1,270.719,120.584Z" transform="translate(-270.719 -112.308)" fill="#263238"/>
          <path id="Path_391" data-name="Path 391" d="M279.968,116.867v2.487a.678.678,0,0,1-.672.674.692.692,0,0,1-.662-.548,2.876,2.876,0,0,1-1.688.548,2.945,2.945,0,0,1-2.157-.927,3.254,3.254,0,0,1-.864-2.234,3.2,3.2,0,0,1,.864-2.234,2.915,2.915,0,0,1,2.157-.953,2.886,2.886,0,0,1,1.688.559.691.691,0,0,1,.662-.559.68.68,0,0,1,.672.686Zm-1.346,0a1.863,1.863,0,0,0-.5-1.309,1.57,1.57,0,0,0-1.18-.52,1.533,1.533,0,0,0-1.18.52,1.863,1.863,0,0,0-.482,1.309,1.9,1.9,0,0,0,.482,1.307,1.6,1.6,0,0,0,1.18.494,1.635,1.635,0,0,0,1.18-.494A1.9,1.9,0,0,0,278.621,116.867Z" transform="translate(-267.588 -111.053)" fill="#263238"/>
          <path id="Path_392" data-name="Path 392" d="M278.161,118.211a.659.659,0,0,1,.951-.1,2.325,2.325,0,0,0,1.4.558,1.7,1.7,0,0,0,.864-.239.519.519,0,0,0,.227-.382.186.186,0,0,0-.038-.127c-.012-.038-.063-.091-.164-.154a2.968,2.968,0,0,0-1.016-.354h-.014a4.967,4.967,0,0,1-1.105-.33,2.127,2.127,0,0,1-.874-.737,1.525,1.525,0,0,1-.217-.8,1.779,1.779,0,0,1,.751-1.4,2.716,2.716,0,0,1,1.56-.471,3.264,3.264,0,0,1,1.9.7.7.7,0,0,1,.2.939.672.672,0,0,1-.939.178,2.171,2.171,0,0,0-1.168-.469,1.3,1.3,0,0,0-.761.227.386.386,0,0,0-.2.293.135.135,0,0,0,.026.1.331.331,0,0,0,.138.127,2.576,2.576,0,0,0,.927.3l.014.014h.012a4.627,4.627,0,0,1,1.182.368,1.983,1.983,0,0,1,.9.749,1.64,1.64,0,0,1,.239.838,1.834,1.834,0,0,1-.8,1.473,2.9,2.9,0,0,1-1.651.508,3.7,3.7,0,0,1-2.26-.876A.677.677,0,0,1,278.161,118.211Z" transform="translate(-263.595 -111.053)" fill="#263238"/>
          <path id="Path_393" data-name="Path 393" d="M284.673,115.633a.714.714,0,0,1-.712.7h-.316v3.543a.7.7,0,0,1,.7.71.691.691,0,0,1-.7.7,1.417,1.417,0,0,1-1.41-1.41v-3.543h-.368a.7.7,0,0,1-.7-.7.688.688,0,0,1,.7-.7h.368v-1.841a.7.7,0,0,1,.712-.7.69.69,0,0,1,.7.7v1.841h.316A.706.706,0,0,1,284.673,115.633Z" transform="translate(-260.509 -112.308)" fill="#263238"/>
          <path id="Path_394" data-name="Path 394" d="M287.454,120.539a.692.692,0,1,1-1.384,0v-7.388a.682.682,0,0,1,.279-.583.7.7,0,0,1,.965.152l4.1,5.674v-5.231a.69.69,0,0,1,.686-.684.7.7,0,0,1,.7.684v7.376a.7.7,0,0,1-.7.7.685.685,0,0,1-.522-.255.344.344,0,0,1-.063-.075l-4.063-5.636Z" transform="translate(-255.722 -112.264)" fill="#263238"/>
          <path id="Path_395" data-name="Path 395" d="M296.651,116.867v2.487a.68.68,0,0,1-.674.674.692.692,0,0,1-.66-.548,2.876,2.876,0,0,1-1.688.548,2.945,2.945,0,0,1-2.157-.927,3.247,3.247,0,0,1-.866-2.234,3.194,3.194,0,0,1,.866-2.234,2.915,2.915,0,0,1,2.157-.953,2.886,2.886,0,0,1,1.688.559.69.69,0,0,1,.66-.559.681.681,0,0,1,.674.686Zm-1.346,0a1.872,1.872,0,0,0-.5-1.309,1.569,1.569,0,0,0-1.18-.52,1.531,1.531,0,0,0-1.18.52,1.864,1.864,0,0,0-.482,1.309,1.9,1.9,0,0,0,.482,1.307,1.592,1.592,0,0,0,1.18.494,1.634,1.634,0,0,0,1.18-.494A1.914,1.914,0,0,0,295.3,116.867Z" transform="translate(-251.291 -111.053)" fill="#263238"/>
          <path id="Path_396" data-name="Path 396" d="M300.228,116.307v3.047a.678.678,0,0,1-.672.674.7.7,0,0,1-.686-.674v-3.047a1.3,1.3,0,0,0-2.59.038v3.009c0,.026-.014.063-.014.089v.038a.225.225,0,0,1-.036.077v.063a.746.746,0,0,1-.637.407c-.049,0-.089-.014-.127-.014a.69.69,0,0,1-.546-.66v-4.988a.671.671,0,0,1,.672-.686.646.646,0,0,1,.611.382,2.664,2.664,0,0,1,1.358-.382,2.636,2.636,0,0,1,1.993.876,2.614,2.614,0,0,1,1.993-.876,2.651,2.651,0,0,1,2.641,2.665v3.009a.68.68,0,0,1-.674.674.689.689,0,0,1-.684-.674v-3.009a1.3,1.3,0,0,0-1.283-1.307A1.318,1.318,0,0,0,300.228,116.307Z" transform="translate(-247.073 -111.053)" fill="#263238"/>
          <path id="Path_397" data-name="Path 397" d="M300.8,116.853a3.143,3.143,0,0,1,3.1-3.173,3.036,3.036,0,0,1,3.058,2.946v.063a.376.376,0,0,1-.012.115.611.611,0,0,1-.66.506h-4.037a1.657,1.657,0,0,0,.433.838,1.96,1.96,0,0,0,1.218.571,2.081,2.081,0,0,0,1.321-.316.715.715,0,0,1,.951-.038.577.577,0,0,1,0,.824,3.207,3.207,0,0,1-2.271.838A3.154,3.154,0,0,1,300.8,116.853Zm1.384-.621h3.592a2.073,2.073,0,0,0-1.878-1.346A1.773,1.773,0,0,0,302.189,116.232Z" transform="translate(-241.326 -111.053)" fill="#263238"/>
          <path id="Path_398" data-name="Path 398" d="M306.392,114.927l-.953.7a.555.555,0,0,1-.316.128.434.434,0,0,1-.419-.433.461.461,0,0,1,.293-.393l1.115-.482L305,113.95a.442.442,0,0,1-.293-.393.433.433,0,0,1,.433-.419.453.453,0,0,1,.3.127l.953.7-.127-1.129a.4.4,0,0,1,.393-.482.39.39,0,0,1,.393.469l-.129,1.143.953-.7a.49.49,0,0,1,.318-.127.416.416,0,0,1,.127.813l-1.117.494,1.117.482a.445.445,0,0,1,.293.405.434.434,0,0,1-.433.421.568.568,0,0,1-.3-.128l-.953-.7.129,1.131a.4.4,0,0,1-.393.482.391.391,0,0,1-.393-.471Z" transform="translate(-237.517 -112.351)" fill="#ffc727"/>
        </g>
        <rect id="Rectangle_8279" data-name="Rectangle 8279" width="272.683" height="27.061" transform="translate(312.426 17.904)" fill="#ebebeb"/>
        <g id="Group_181" data-name="Group 181" transform="translate(0.926 246.538)">
          <path id="Path_399" data-name="Path 399" d="M112.487,241.627a4.664,4.664,0,0,1,4.66-4.571,4.753,4.753,0,0,1,2.932.99.728.728,0,0,1-.888,1.155,3.165,3.165,0,0,0-2.044-.7,3.359,3.359,0,0,0-2.285.915,3.134,3.134,0,0,0-.925,2.208,3.089,3.089,0,0,0,.925,2.208,3.357,3.357,0,0,0,2.285.913,3.191,3.191,0,0,0,2.044-.7.769.769,0,0,1,1.016.138.75.75,0,0,1-.128,1.016,4.753,4.753,0,0,1-2.932.99A4.646,4.646,0,0,1,112.487,241.627Z" transform="translate(-112.487 -237.056)" fill="#263238"/>
          <path id="Path_400" data-name="Path 400" d="M118.946,238.136a.685.685,0,0,1-.686.7.694.694,0,0,1-.686-.7v-.267a.683.683,0,0,1,.686-.684.675.675,0,0,1,.686.684Zm0,2.3v4.952a.675.675,0,0,1-.686.686.684.684,0,0,1-.686-.686v-4.952a.678.678,0,0,1,.686-.7A.669.669,0,0,1,118.946,240.433Z" transform="translate(-107.517 -236.93)" fill="#263238"/>
          <path id="Path_401" data-name="Path 401" d="M122.549,240.421a.715.715,0,0,1-.71.7h-.318v3.543a.7.7,0,0,1,.7.71.688.688,0,0,1-.7.7,1.415,1.415,0,0,1-1.41-1.41v-3.543h-.368a.7.7,0,0,1-.7-.7.688.688,0,0,1,.7-.7h.368v-1.841a.7.7,0,0,1,.712-.7.688.688,0,0,1,.7.7v1.841h.318A.707.707,0,0,1,122.549,240.421Z" transform="translate(-106.079 -236.93)" fill="#263238"/>
          <path id="Path_402" data-name="Path 402" d="M126.985,239.141v4.8a3,3,0,0,1-4.341,2.716.664.664,0,0,1-.33-.9.7.7,0,0,1,.9-.281,1.649,1.649,0,0,0,2.323-.977,2.461,2.461,0,0,1-1.206.3,2.671,2.671,0,0,1-2.653-2.665v-3a.674.674,0,0,1,.66-.672.654.654,0,0,1,.674.672v3a1.314,1.314,0,0,0,2.627,0v-3a.65.65,0,0,1,.66-.672A.678.678,0,0,1,126.985,239.141Z" transform="translate(-103.507 -235.676)" fill="#263238"/>
          <path id="Path_403" data-name="Path 403" d="M127.3,239.716l-.951.7a.557.557,0,0,1-.318.126.432.432,0,0,1-.419-.431.463.463,0,0,1,.293-.393l1.117-.482-1.117-.494a.442.442,0,0,1-.293-.393.434.434,0,0,1,.431-.419.459.459,0,0,1,.306.127l.951.7-.127-1.131a.4.4,0,0,1,.393-.48.391.391,0,0,1,.393.469l-.127,1.143.953-.7a.478.478,0,0,1,.316-.127.422.422,0,0,1,.419.419.429.429,0,0,1-.293.393l-1.117.494,1.117.482a.448.448,0,0,1,.293.407.434.434,0,0,1-.433.417.547.547,0,0,1-.3-.126l-.953-.7.127,1.131a.4.4,0,0,1-.393.482.392.392,0,0,1-.393-.471Z" transform="translate(-99.666 -236.974)" fill="#ffc727"/>
        </g>
        <rect id="Rectangle_8280" data-name="Rectangle 8280" width="272.683" height="27.061" transform="translate(0 264.608)" fill="#ebebeb"/>
        <g id="Group_182" data-name="Group 182" transform="translate(313.326 246.538)">
          <path id="Path_404" data-name="Path 404" d="M277.26,238.3l-4.672,6.36h4.088a.71.71,0,0,1,.712.71.7.7,0,0,1-.712.7H271.2a.44.44,0,0,1-.127-.014.052.052,0,0,1-.04-.012c-.024,0-.049-.012-.087-.012-.014-.014-.026-.014-.039-.04a.192.192,0,0,1-.061-.026c-.026-.012-.039-.012-.051-.026v-.012c-.014,0-.026-.014-.039-.026a.306.306,0,0,1-.049-.063.164.164,0,0,1-.051-.038c-.014-.014-.026-.038-.04-.051-.01-.038-.024-.051-.024-.063s-.038-.038-.038-.063-.014-.051-.026-.075-.014-.026-.014-.051-.012-.065-.012-.089v-.051a.2.2,0,0,1,.012-.089v-.063c.014-.012.014-.038.026-.063s.014-.04.014-.063a.07.07,0,0,0,.038-.051.257.257,0,0,0,.038-.063h.012l4.662-6.374h-4.1a.707.707,0,0,1-.7-.71.688.688,0,0,1,.7-.7h5.573c.014,0,.04.012.051.012.038,0,.049.014.075.014s.039.012.051.026a.075.075,0,0,1,.063.038c.026.012.04.026.065.038h.012c.024.012.024.026.038.038a.21.21,0,0,1,.051.051c.012.012.026.038.038.049a.1.1,0,0,1,.049.051.251.251,0,0,0,.04.063.1.1,0,0,0,.026.051.536.536,0,0,0,.012.077.067.067,0,0,1,.026.063.169.169,0,0,1,.014.075v.14a.087.087,0,0,0-.014.051c0,.036-.026.049-.026.075s-.012.038-.026.077c-.012.012-.012.024-.026.038a.3.3,0,0,1-.038.063Z" transform="translate(-270.507 -236.93)" fill="#263238"/>
          <path id="Path_405" data-name="Path 405" d="M275.049,237.883a.686.686,0,0,1,.7-.7.706.706,0,0,1,.712.7v7.489a.706.706,0,0,1-.712.7.687.687,0,0,1-.7-.7Z" transform="translate(-266.07 -236.93)" fill="#263238"/>
          <path id="Path_406" data-name="Path 406" d="M279.933,242.618h-1.56v2.754a.706.706,0,0,1-1.412,0v-7.489a.7.7,0,0,1,.7-.7h2.272a2.716,2.716,0,1,1,0,5.433Zm-1.56-1.41h1.56a1.308,1.308,0,1,0,0-2.616h-1.56Z" transform="translate(-264.201 -236.93)" fill="#263238"/>
          <path id="Path_407" data-name="Path 407" d="M282.434,241.627a4.664,4.664,0,0,1,4.66-4.571,4.753,4.753,0,0,1,2.932.99.728.728,0,0,1-.888,1.155,3.165,3.165,0,0,0-2.044-.7,3.351,3.351,0,0,0-2.283.915,3.121,3.121,0,0,0-.929,2.208,3.077,3.077,0,0,0,.929,2.208,3.349,3.349,0,0,0,2.283.913,3.191,3.191,0,0,0,2.044-.7.769.769,0,0,1,1.016.138.75.75,0,0,1-.128,1.016,4.753,4.753,0,0,1-2.932.99A4.646,4.646,0,0,1,282.434,241.627Z" transform="translate(-258.855 -237.056)" fill="#263238"/>
          <path id="Path_408" data-name="Path 408" d="M288.18,243.89a3.172,3.172,0,0,1-.876-2.234,3.276,3.276,0,0,1,.876-2.222,2.963,2.963,0,0,1,2.185-.965,2.8,2.8,0,0,1,2.119.965,3.172,3.172,0,0,1,.89,2.222,3.075,3.075,0,0,1-.89,2.234,2.8,2.8,0,0,1-2.119.965A2.963,2.963,0,0,1,288.18,243.89Zm.508-2.234a2.054,2.054,0,0,0,.457,1.344,1.721,1.721,0,0,0,1.22.47,1.658,1.658,0,0,0,1.166-.47,1.941,1.941,0,0,0,.5-1.344,1.9,1.9,0,0,0-.5-1.321,1.779,1.779,0,0,0-1.166-.482,1.839,1.839,0,0,0-1.22.482A2.012,2.012,0,0,0,288.688,241.656Z" transform="translate(-254.097 -235.676)" fill="#263238"/>
          <path id="Path_409" data-name="Path 409" d="M297.424,245.385a.691.691,0,0,1-.686.686.68.68,0,0,1-.672-.546,3.142,3.142,0,1,1-1.726-5.8,3,3,0,0,1,1.7.534v-2.388a.692.692,0,0,1,1.384,0v7.516Zm-3.084-4.278a1.648,1.648,0,0,0-1.2.52,1.809,1.809,0,0,0-.506,1.283,1.784,1.784,0,0,0,.506,1.255,1.65,1.65,0,0,0,1.2.522,1.624,1.624,0,0,0,1.192-.522,1.786,1.786,0,0,0,.508-1.255,1.81,1.81,0,0,0-.508-1.283A1.623,1.623,0,0,0,294.34,241.107Z" transform="translate(-250.238 -236.93)" fill="#263238"/>
          <path id="Path_410" data-name="Path 410" d="M295.385,241.642a3.14,3.14,0,0,1,3.1-3.173,3.039,3.039,0,0,1,3.06,2.944v.065a.326.326,0,0,1-.014.115.61.61,0,0,1-.66.506H296.83a1.657,1.657,0,0,0,.433.838,1.96,1.96,0,0,0,1.218.571,2.068,2.068,0,0,0,1.321-.316.717.717,0,0,1,.953-.038.579.579,0,0,1,0,.824,3.215,3.215,0,0,1-2.274.838A3.151,3.151,0,0,1,295.385,241.642Zm1.382-.621h3.594a2.076,2.076,0,0,0-1.88-1.346A1.776,1.776,0,0,0,296.767,241.021Z" transform="translate(-246.202 -235.676)" fill="#263238"/>
          <path id="Path_411" data-name="Path 411" d="M300.971,239.716l-.953.7a.547.547,0,0,1-.316.126.432.432,0,0,1-.419-.431.467.467,0,0,1,.293-.393l1.117-.482-1.117-.494a.442.442,0,0,1-.293-.393.434.434,0,0,1,.433-.419.446.446,0,0,1,.3.127l.953.7-.126-1.131a.4.4,0,0,1,.393-.48.392.392,0,0,1,.4.469l-.128,1.143.951-.7a.49.49,0,0,1,.318-.127.423.423,0,0,1,.419.419.429.429,0,0,1-.293.393l-1.117.494,1.117.482a.448.448,0,0,1,.293.407.432.432,0,0,1-.431.417.563.563,0,0,1-.306-.126l-.951-.7.128,1.131a.4.4,0,0,1-.4.482.391.391,0,0,1-.393-.471Z" transform="translate(-242.394 -236.974)" fill="#ffc727"/>
        </g>
        <rect id="Rectangle_8281" data-name="Rectangle 8281" width="272.683" height="27.061" transform="translate(312.426 264.608)" fill="#ebebeb"/>
        <g id="Group_183" data-name="Group 183" transform="translate(1.321 308.019)">
          <path id="Path_412" data-name="Path 412" d="M115.656,273.634H114.1v2.754a.7.7,0,0,1-1.41,0V268.9a.694.694,0,0,1,.7-.7h2.272a2.716,2.716,0,1,1,0,5.433Zm-1.56-1.41h1.56a1.308,1.308,0,1,0,0-2.616H114.1Z" transform="translate(-112.687 -268.11)" fill="#263238"/>
          <path id="Path_413" data-name="Path 413" d="M122.064,272.67v2.489a.678.678,0,0,1-.672.674.69.69,0,0,1-.66-.546,2.888,2.888,0,0,1-1.688.546,2.949,2.949,0,0,1-2.159-.927,3.256,3.256,0,0,1-.864-2.236,3.2,3.2,0,0,1,.864-2.232,2.919,2.919,0,0,1,2.159-.953,2.886,2.886,0,0,1,1.688.56.689.689,0,0,1,.66-.56.68.68,0,0,1,.672.686Zm-1.346,0a1.869,1.869,0,0,0-.494-1.307,1.572,1.572,0,0,0-1.18-.52,1.537,1.537,0,0,0-1.182.52,1.871,1.871,0,0,0-.482,1.307,1.915,1.915,0,0,0,.482,1.309,1.608,1.608,0,0,0,1.182.494,1.646,1.646,0,0,0,1.18-.494A1.914,1.914,0,0,0,120.717,272.67Z" transform="translate(-109.431 -266.856)" fill="#263238"/>
          <path id="Path_414" data-name="Path 414" d="M120.255,274.016a.663.663,0,0,1,.953-.1,2.325,2.325,0,0,0,1.4.557,1.693,1.693,0,0,0,.864-.239.523.523,0,0,0,.229-.382.2.2,0,0,0-.038-.127.4.4,0,0,0-.166-.152,2.946,2.946,0,0,0-1.016-.356h-.012a4.932,4.932,0,0,1-1.105-.33,2.132,2.132,0,0,1-.876-.737,1.542,1.542,0,0,1-.215-.8,1.784,1.784,0,0,1,.749-1.4,2.741,2.741,0,0,1,1.562-.469,3.264,3.264,0,0,1,1.9.7.7.7,0,0,1,.2.941.67.67,0,0,1-.939.176,2.177,2.177,0,0,0-1.168-.469,1.3,1.3,0,0,0-.763.227.388.388,0,0,0-.2.293.133.133,0,0,0,.026.1.318.318,0,0,0,.138.127,2.524,2.524,0,0,0,.927.3l.012.014h.012a4.708,4.708,0,0,1,1.182.368,1.972,1.972,0,0,1,.9.749,1.648,1.648,0,0,1,.241.838,1.835,1.835,0,0,1-.8,1.473,2.9,2.9,0,0,1-1.651.508,3.683,3.683,0,0,1-2.258-.878A.677.677,0,0,1,120.255,274.016Z" transform="translate(-105.438 -266.856)" fill="#263238"/>
          <path id="Path_415" data-name="Path 415" d="M123.353,274.016a.661.661,0,0,1,.951-.1,2.326,2.326,0,0,0,1.4.557,1.7,1.7,0,0,0,.864-.239.525.525,0,0,0,.227-.382.2.2,0,0,0-.038-.127.388.388,0,0,0-.166-.152,2.946,2.946,0,0,0-1.016-.356h-.012a4.884,4.884,0,0,1-1.1-.33,2.125,2.125,0,0,1-.878-.737,1.542,1.542,0,0,1-.215-.8,1.784,1.784,0,0,1,.749-1.4,2.746,2.746,0,0,1,1.562-.469,3.264,3.264,0,0,1,1.9.7.7.7,0,0,1,.2.941.67.67,0,0,1-.939.176,2.172,2.172,0,0,0-1.168-.469,1.29,1.29,0,0,0-.761.227.387.387,0,0,0-.2.293.133.133,0,0,0,.026.1.315.315,0,0,0,.14.127,2.511,2.511,0,0,0,.925.3l.014.014h.012a4.669,4.669,0,0,1,1.18.368,1.963,1.963,0,0,1,.9.749,1.648,1.648,0,0,1,.241.838,1.834,1.834,0,0,1-.8,1.473,2.905,2.905,0,0,1-1.651.508,3.684,3.684,0,0,1-2.26-.878A.676.676,0,0,1,123.353,274.016Z" transform="translate(-102.413 -266.856)" fill="#263238"/>
          <path id="Path_416" data-name="Path 416" d="M134.833,270.455l-2.1,4.927a.662.662,0,0,1-.049.1.014.014,0,0,1-.014.014.362.362,0,0,1-.063.077.044.044,0,0,1-.026.012.363.363,0,0,1-.077.063c0,.012-.012.012-.012.026a.339.339,0,0,1-.115.063.012.012,0,0,0-.012.012.42.42,0,0,0-.1.026h-.026a.372.372,0,0,1-.128.014.315.315,0,0,1-.113-.014h-.026a.2.2,0,0,0-.089-.026l-.012-.012h-.014a.3.3,0,0,1-.115-.077v-.012c-.038-.012-.051-.04-.075-.063,0,0-.026,0-.026-.012a.311.311,0,0,1-.063-.077.014.014,0,0,1-.014-.014.657.657,0,0,1-.049-.1l-.927-2.2-.9,2.2c-.014.026-.04.065-.063.1v.014l-.077.077a.012.012,0,0,1-.012.012l-.077.075a.425.425,0,0,1-.113.077h-.026s-.014,0-.014.012a.136.136,0,0,0-.075.026h-.026a.439.439,0,0,1-.127.014.354.354,0,0,1-.127-.014h-.04a.2.2,0,0,0-.077-.026c-.012-.012-.012-.012-.024-.012a.225.225,0,0,1-.115-.077c-.012,0-.012,0-.012-.012a.541.541,0,0,0-.077-.063l-.026-.012c-.012-.026-.038-.051-.049-.077-.014,0-.014,0-.014-.014a.9.9,0,0,0-.063-.1l-2.082-4.927a.654.654,0,0,1,.368-.874.631.631,0,0,1,.838.38l1.5,3.416.888-2.121a.677.677,0,0,1,.623-.407.649.649,0,0,1,.621.407l.9,2.121,1.5-3.416a.635.635,0,0,1,.85-.38A.665.665,0,0,1,134.833,270.455Z" transform="translate(-99.368 -266.812)" fill="#263238"/>
          <path id="Path_417" data-name="Path 417" d="M132.595,274.906a3.173,3.173,0,0,1-.876-2.236,3.275,3.275,0,0,1,.876-2.22,2.962,2.962,0,0,1,2.183-.965,2.8,2.8,0,0,1,2.119.965,3.162,3.162,0,0,1,.89,2.22,3.068,3.068,0,0,1-.89,2.236,2.809,2.809,0,0,1-2.119.965A2.969,2.969,0,0,1,132.595,274.906Zm.506-2.236a2.046,2.046,0,0,0,.459,1.346,1.716,1.716,0,0,0,1.218.471,1.666,1.666,0,0,0,1.168-.471,1.942,1.942,0,0,0,.494-1.346,1.9,1.9,0,0,0-.494-1.319,1.8,1.8,0,0,0-1.168-.482,1.844,1.844,0,0,0-1.218.482A2,2,0,0,0,133.1,272.67Z" transform="translate(-94.093 -266.856)" fill="#263238"/>
          <path id="Path_418" data-name="Path 418" d="M139.663,270.151a.679.679,0,0,1-.674.674,1.207,1.207,0,0,0-.761.241,1.887,1.887,0,0,0-.583.609,3.84,3.84,0,0,0-.522,1.068v2.41a.692.692,0,0,1-.7.674.678.678,0,0,1-.672-.674v-5a.665.665,0,0,1,.672-.658.679.679,0,0,1,.7.658v.089a1.685,1.685,0,0,1,.267-.253,2.764,2.764,0,0,1,1.6-.494A.658.658,0,0,1,139.663,270.151Z" transform="translate(-90.152 -266.849)" fill="#263238"/>
          <path id="Path_419" data-name="Path 419" d="M144.37,276.4a.691.691,0,0,1-.686.686.683.683,0,0,1-.672-.546,3.1,3.1,0,0,1-1.726.546,3.175,3.175,0,0,1,0-6.348,2.992,2.992,0,0,1,1.7.534v-2.386a.692.692,0,0,1,1.384,0V276.4Zm-3.084-4.278a1.64,1.64,0,0,0-1.194.52,1.806,1.806,0,0,0-.508,1.281,1.787,1.787,0,0,0,.508,1.257,1.635,1.635,0,0,0,1.194.522,1.614,1.614,0,0,0,1.192-.522,1.779,1.779,0,0,0,.508-1.257,1.8,1.8,0,0,0-.508-1.281A1.619,1.619,0,0,0,141.286,272.123Z" transform="translate(-87.762 -268.11)" fill="#263238"/>
          <path id="Path_420" data-name="Path 420" d="M144.23,270.733l-.953.7a.55.55,0,0,1-.316.129.434.434,0,0,1-.419-.433.465.465,0,0,1,.291-.393l1.119-.482-1.119-.5a.416.416,0,0,1,.14-.812.447.447,0,0,1,.3.13l.953.7-.126-1.129a.4.4,0,0,1,.393-.484.393.393,0,0,1,.393.472l-.126,1.141.951-.7a.482.482,0,0,1,.318-.13.416.416,0,0,1,.127.813l-1.117.5,1.117.482a.448.448,0,0,1,.293.407.434.434,0,0,1-.433.419.561.561,0,0,1-.3-.129l-.951-.7.126,1.131a.4.4,0,0,1-.393.48.389.389,0,0,1-.393-.469Z" transform="translate(-83.52 -268.155)" fill="#ffc727"/>
        </g>
        <rect id="Rectangle_8282" data-name="Rectangle 8282" width="272.683" height="27.061" transform="translate(0 325.925)" fill="#ebebeb"/>
        <rect id="Rectangle_8283" data-name="Rectangle 8283" width="122.321" height="27.061" transform="translate(462.788 325.925)" fill="none" stroke="#225649" stroke-width="1"/>
        <rect id="Rectangle_8284" data-name="Rectangle 8284" width="122.321" height="27.061" transform="translate(312.966 325.925)" fill="#225649"/>
        <g id="Group_184" data-name="Group 184" transform="translate(352.351 333.807)">
          <path id="Path_421" data-name="Path 421" d="M290.384,288.128a.664.664,0,0,1,.927-.089,4.128,4.128,0,0,0,2.426.979,2.729,2.729,0,0,0,1.588-.471,1.143,1.143,0,0,0,.546-.913.738.738,0,0,0-.115-.407,1.194,1.194,0,0,0-.382-.38,5.079,5.079,0,0,0-1.74-.6h-.024a6.9,6.9,0,0,1-1.637-.494,2.71,2.71,0,0,1-1.182-.99,1.96,1.96,0,0,1-.293-1.042,2.338,2.338,0,0,1,1.016-1.852,3.761,3.761,0,0,1,2.2-.672,4.972,4.972,0,0,1,2.768,1.014.655.655,0,0,1,.178.9.641.641,0,0,1-.9.19,3.689,3.689,0,0,0-2.044-.813,2.414,2.414,0,0,0-1.421.433,1.011,1.011,0,0,0-.482.8.614.614,0,0,0,.089.356,1.244,1.244,0,0,0,.342.33,4.386,4.386,0,0,0,1.588.559h.026a7.564,7.564,0,0,1,1.752.532,2.962,2.962,0,0,1,1.269,1.054,2.07,2.07,0,0,1,.3,1.079,2.455,2.455,0,0,1-1.091,1.967,3.974,3.974,0,0,1-2.349.724,5.47,5.47,0,0,1-3.25-1.269A.679.679,0,0,1,290.384,288.128Z" transform="translate(-290.247 -281.199)" fill="#fff"/>
          <path id="Path_422" data-name="Path 422" d="M297.25,288.959a2.656,2.656,0,0,1-2.643-2.639v-3.037a.688.688,0,0,1,.674-.672.678.678,0,0,1,.672.672v3.037a1.284,1.284,0,0,0,1.3,1.293,1.319,1.319,0,0,0,1.332-1.293v-3.037a.666.666,0,0,1,.658-.672.707.707,0,0,1,.686.672v3.037A2.679,2.679,0,0,1,297.25,288.959Z" transform="translate(-285.987 -279.82)" fill="#fff"/>
          <path id="Path_423" data-name="Path 423" d="M298.608,287.05v-5.037a.692.692,0,0,1,1.384,0V284.4a3,3,0,0,1,1.7-.534,3.175,3.175,0,0,1,0,6.348,3.105,3.105,0,0,1-1.728-.546.68.68,0,0,1-.672.546.693.693,0,0,1-.686-.686Zm1.384,0a1.8,1.8,0,0,0,.508,1.259,1.624,1.624,0,0,0,1.194.52,1.647,1.647,0,0,0,1.194-.52,1.842,1.842,0,0,0,0-2.54,1.647,1.647,0,0,0-1.194-.52,1.624,1.624,0,0,0-1.194.52A1.806,1.806,0,0,0,299.992,287.05Z" transform="translate(-282.078 -281.074)" fill="#fff"/>
          <path id="Path_424" data-name="Path 424" d="M308.156,285.238v3.046a.68.68,0,0,1-.674.674.7.7,0,0,1-.686-.674v-3.046a1.3,1.3,0,0,0-2.59.038v3.009c0,.028-.012.063-.012.089v.04c-.014.026-.014.051-.037.075v.063a.743.743,0,0,1-.635.407c-.051,0-.089-.014-.129-.014a.689.689,0,0,1-.546-.66V283.3a.674.674,0,0,1,.674-.686.645.645,0,0,1,.609.382,2.675,2.675,0,0,1,1.358-.382,2.63,2.63,0,0,1,1.993.876,2.618,2.618,0,0,1,1.993-.876,2.652,2.652,0,0,1,2.641,2.665v3.009a.678.678,0,0,1-.672.674.691.691,0,0,1-.686-.674v-3.009a1.3,1.3,0,0,0-1.283-1.307A1.318,1.318,0,0,0,308.156,285.238Z" transform="translate(-277.936 -279.82)" fill="#fff"/>
          <path id="Path_425" data-name="Path 425" d="M310.333,282.28a.685.685,0,0,1-.686.7.692.692,0,0,1-.684-.7v-.267a.681.681,0,0,1,.684-.686.674.674,0,0,1,.686.686Zm0,2.3v4.95a.676.676,0,0,1-.686.686.683.683,0,0,1-.684-.686v-4.95a.685.685,0,1,1,1.37,0Z" transform="translate(-271.962 -281.074)" fill="#fff"/>
          <path id="Path_426" data-name="Path 426" d="M313.938,284.565a.716.716,0,0,1-.712.7h-.316V288.8a.7.7,0,0,1,.7.71.69.69,0,0,1-.7.7,1.415,1.415,0,0,1-1.41-1.409v-3.541h-.368a.7.7,0,0,1-.7-.7.688.688,0,0,1,.7-.7h.368v-1.841a.7.7,0,0,1,.712-.7.687.687,0,0,1,.7.7v1.841h.316A.707.707,0,0,1,313.938,284.565Z" transform="translate(-270.523 -281.074)" fill="#fff"/>
        </g>
        <g id="Group_185" data-name="Group 185" transform="translate(503.245 333.807)">
          <path id="Path_427" data-name="Path 427" d="M366.573,285.768a4.657,4.657,0,0,1,4.66-4.569,4.76,4.76,0,0,1,2.932.988.753.753,0,0,1,.127,1.016.744.744,0,0,1-1.014.14,3.158,3.158,0,0,0-2.044-.7,3.35,3.35,0,0,0-2.285.913,3.129,3.129,0,0,0-.929,2.208,3.088,3.088,0,0,0,.929,2.208,3.351,3.351,0,0,0,2.285.915,3.207,3.207,0,0,0,2.044-.7.766.766,0,0,1,1.014.138.752.752,0,0,1-.127,1.016,4.75,4.75,0,0,1-2.932.99A4.645,4.645,0,0,1,366.573,285.768Z" transform="translate(-366.573 -281.199)" fill="#225649"/>
          <path id="Path_428" data-name="Path 428" d="M377.357,285.8v2.489a.678.678,0,0,1-.672.674.692.692,0,0,1-.662-.546,2.889,2.889,0,0,1-1.688.546,2.945,2.945,0,0,1-2.157-.927,3.252,3.252,0,0,1-.864-2.236,3.2,3.2,0,0,1,.864-2.232,2.915,2.915,0,0,1,2.157-.953,2.886,2.886,0,0,1,1.688.56.691.691,0,0,1,.662-.56.68.68,0,0,1,.672.686Zm-1.346,0a1.862,1.862,0,0,0-.5-1.307,1.577,1.577,0,0,0-1.18-.52,1.537,1.537,0,0,0-1.18.52,1.862,1.862,0,0,0-.482,1.307,1.911,1.911,0,0,0,.482,1.311,1.607,1.607,0,0,0,1.18.494,1.65,1.65,0,0,0,1.18-.494A1.911,1.911,0,0,0,376.01,285.8Z" transform="translate(-361.942 -279.82)" fill="#225649"/>
          <path id="Path_429" data-name="Path 429" d="M380.859,285.25v3.035a.668.668,0,0,1-.66.674.686.686,0,0,1-.672-.674V285.25a1.3,1.3,0,0,0-1.321-1.281,1.269,1.269,0,0,0-1.271,1.281v3.035a.252.252,0,0,1-.026.129.691.691,0,0,1-.672.546.671.671,0,0,1-.672-.674v-5a.669.669,0,0,1,.672-.672.685.685,0,0,1,.623.393,2.535,2.535,0,0,1,1.346-.393A2.657,2.657,0,0,1,380.859,285.25Z" transform="translate(-357.788 -279.82)" fill="#225649"/>
          <path id="Path_430" data-name="Path 430" d="M379.278,285.8a3.23,3.23,0,0,1,3.224-3.185,3.346,3.346,0,0,1,2.018.7.7.7,0,0,1,.14.939.678.678,0,0,1-.953.127,2.029,2.029,0,0,0-1.206-.407,1.823,1.823,0,1,0,0,3.643,2.055,2.055,0,0,0,1.206-.405.693.693,0,0,1,.953.138.7.7,0,0,1-.14.939,3.5,3.5,0,0,1-2.018.674A3.218,3.218,0,0,1,379.278,285.8Z" transform="translate(-354.161 -279.82)" fill="#225649"/>
          <path id="Path_431" data-name="Path 431" d="M382.85,285.784a3.141,3.141,0,0,1,3.1-3.173,3.036,3.036,0,0,1,3.058,2.946v.063a.332.332,0,0,1-.014.115.612.612,0,0,1-.66.508H384.3a1.64,1.64,0,0,0,.431.836,1.967,1.967,0,0,0,1.22.573,2.092,2.092,0,0,0,1.319-.318.722.722,0,0,1,.953-.04.582.582,0,0,1,0,.826,3.21,3.21,0,0,1-2.272.838A3.15,3.15,0,0,1,382.85,285.784Zm1.382-.621h3.594a2.075,2.075,0,0,0-1.878-1.346A1.779,1.779,0,0,0,384.232,285.163Z" transform="translate(-350.671 -279.82)" fill="#225649"/>
          <path id="Path_432" data-name="Path 432" d="M387.729,281.327a.705.705,0,0,1,.71.7v7.489a.7.7,0,0,1-1.408,0v-7.489A.7.7,0,0,1,387.729,281.327Z" transform="translate(-346.586 -281.074)" fill="#225649"/>
        </g>
      </g>
    </g>
  </g>
</svg>
