<svg xmlns="http://www.w3.org/2000/svg" width="20" height="22.085" viewBox="0 0 20 22.085">
  <path id="Icon_simple-webpack" data-name="Icon simple-webpack" d="M22.885,19.594l-8.99,5.063V20.714l5.6-3.068,3.389,1.948Zm.615-.554V8.451l-3.29,1.89v6.806Zm-19.385.554,8.99,5.063V20.714L7.5,17.646,4.115,19.594ZM3.5,19.04V8.451l3.29,1.89v6.806L3.5,19.04ZM3.884,7.766,13.1,2.572V6.385L7.2,9.62l-.045.026L3.884,7.766Zm19.23,0L13.894,2.572V6.385L19.8,9.62l.045.026,3.268-1.88ZM13.105,19.817,7.579,16.792V10.8L13.1,13.974v5.842Zm.789,0,5.526-3.025V10.8l-5.526,3.177v5.842ZM7.953,10.1,13.5,7.066,19.048,10.1,13.5,13.294Z" transform="translate(-3.5 -2.572)" fill="#fff"/>
</svg>
