<svg xmlns="http://www.w3.org/2000/svg" width="15.504" height="15.5" viewBox="0 0 15.504 15.5">
  <path id="Icon_awesome-instagram" data-name="Icon awesome-instagram" d="M7.748,6.014a3.974,3.974,0,1,0,3.974,3.974A3.968,3.968,0,0,0,7.748,6.014Zm0,6.558a2.584,2.584,0,1,1,2.584-2.584A2.588,2.588,0,0,1,7.748,12.572Zm5.064-6.72a.927.927,0,1,1-.927-.927A.925.925,0,0,1,12.812,5.851Zm2.632.941a4.587,4.587,0,0,0-1.252-3.248,4.617,4.617,0,0,0-3.248-1.252c-1.28-.073-5.116-.073-6.4,0A4.611,4.611,0,0,0,1.3,3.541,4.6,4.6,0,0,0,.049,6.789c-.073,1.28-.073,5.116,0,6.4A4.587,4.587,0,0,0,1.3,16.432a4.623,4.623,0,0,0,3.248,1.252c1.28.073,5.116.073,6.4,0a4.587,4.587,0,0,0,3.248-1.252,4.617,4.617,0,0,0,1.252-3.248c.073-1.28.073-5.112,0-6.392Zm-1.653,7.765a2.616,2.616,0,0,1-1.473,1.473,17.083,17.083,0,0,1-4.569.311,17.216,17.216,0,0,1-4.569-.311,2.616,2.616,0,0,1-1.473-1.473,17.083,17.083,0,0,1-.311-4.569,17.216,17.216,0,0,1,.311-4.569A2.616,2.616,0,0,1,3.179,3.945a17.083,17.083,0,0,1,4.569-.311,17.216,17.216,0,0,1,4.569.311,2.616,2.616,0,0,1,1.473,1.473A17.083,17.083,0,0,1,14.1,9.988,17.073,17.073,0,0,1,13.791,14.557Z" transform="translate(0.005 -2.238)" fill="#003122"/>
</svg>
