<svg xmlns="http://www.w3.org/2000/svg" width="20.672" height="20.672" viewBox="0 0 20.672 20.672">
  <path id="Icon_awesome-twitter-square" data-name="Icon awesome-twitter-square" d="M18.457,2.25H2.215A2.215,2.215,0,0,0,0,4.465V20.707a2.215,2.215,0,0,0,2.215,2.215H18.457a2.215,2.215,0,0,0,2.215-2.215V4.465A2.215,2.215,0,0,0,18.457,2.25ZM16.2,9.577c.009.129.009.263.009.392A8.552,8.552,0,0,1,7.6,18.58a8.571,8.571,0,0,1-4.647-1.357,6.376,6.376,0,0,0,.729.037,6.067,6.067,0,0,0,3.756-1.292,3.03,3.03,0,0,1-2.829-2.1,3.262,3.262,0,0,0,1.366-.055,3.027,3.027,0,0,1-2.422-2.972V10.8a3.024,3.024,0,0,0,1.366.383A3.02,3.02,0,0,1,3.571,8.668a2.988,2.988,0,0,1,.411-1.527,8.593,8.593,0,0,0,6.238,3.165,3.033,3.033,0,0,1,5.163-2.764,5.93,5.93,0,0,0,1.92-.729,3.018,3.018,0,0,1-1.329,1.666,6.022,6.022,0,0,0,1.744-.471A6.37,6.37,0,0,1,16.2,9.577Z" transform="translate(0 -2.25)" fill="#fff"/>
</svg>
