<svg xmlns="http://www.w3.org/2000/svg" width="20.672" height="20.672" viewBox="0 0 20.672 20.672">
  <path id="Icon_awesome-facebook-square" data-name="Icon awesome-facebook-square" d="M18.457,2.25H2.215A2.215,2.215,0,0,0,0,4.465V20.707a2.215,2.215,0,0,0,2.215,2.215H8.548V15.894H5.641V12.586H8.548V10.065c0-2.868,1.707-4.452,4.322-4.452a17.611,17.611,0,0,1,2.562.223V8.651H13.989a1.654,1.654,0,0,0-1.865,1.787v2.148H15.3l-.508,3.308H12.124v7.028h6.333a2.215,2.215,0,0,0,2.215-2.215V4.465A2.215,2.215,0,0,0,18.457,2.25Z" transform="translate(0 -2.25)" fill="#fff"/>
</svg>
