<svg xmlns="http://www.w3.org/2000/svg" width="20.672" height="20.672" viewBox="0 0 20.672 20.672">
  <path id="Icon_awesome-linkedin" data-name="Icon awesome-linkedin" d="M19.2,2.25H1.472A1.483,1.483,0,0,0,0,3.74V21.431a1.483,1.483,0,0,0,1.472,1.49H19.2a1.487,1.487,0,0,0,1.477-1.49V3.74A1.487,1.487,0,0,0,19.2,2.25ZM6.248,19.969H3.184V10.1H6.252v9.865ZM4.716,8.756A1.776,1.776,0,1,1,6.492,6.98,1.777,1.777,0,0,1,4.716,8.756ZM17.733,19.969H14.669v-4.8c0-1.144-.023-2.616-1.592-2.616-1.6,0-1.841,1.246-1.841,2.533v4.882H8.172V10.1h2.939v1.347h.042a3.227,3.227,0,0,1,2.9-1.592c3.1,0,3.678,2.044,3.678,4.7Z" transform="translate(0 -2.25)" fill="#fff"/>
</svg>
