<svg xmlns="http://www.w3.org/2000/svg" width="40.496" height="36.005" viewBox="0 0 40.496 36.005">
  <path id="Icon_awesome-leaf" data-name="Icon awesome-leaf" d="M38.4.682A1.094,1.094,0,0,0,36.415.6,12.057,12.057,0,0,1,25.875,6.75H20.25a13.5,13.5,0,0,0-13.5,13.5,13.9,13.9,0,0,0,.105,1.441C11.341,18.478,17.817,15.75,27,15.75A1.125,1.125,0,0,1,27,18C9.323,18,1.828,28.835.169,32.906a2.253,2.253,0,0,0,4.17,1.709,18.5,18.5,0,0,1,5.055-6.37,13.47,13.47,0,0,0,12.3,5.428c11.039-.8,18.809-10.7,18.809-22.823A25.568,25.568,0,0,0,38.4.682Z" transform="translate(-0.004 0.002)" fill="#225649"/>
</svg>
